Patient4_TMGait_0pt7_02_right_51_EMG.mot
version=1
nRows=30
nColumns=33
inDegrees=no
endheader
time	1LAddLong	2LGlutMax	3LGlutMed	4LIliopsoas	5LSemiMemb	6LBicFemLong	7LRecFem	8LVastMed	9LVastLat	10LGasMed	11LTibAnt	12lTibPost	13LPeroneusLong	14LSol	15LExtDigLong	16LFlexDigLong	17RAddLong	18RGlutMax	19RGlutMed	20RIliopsoas	21RSemiMemb	22RBicFemLong	23RRecFem	24RVastMed	25RVastLat	26RGasMed	27RTibAnt	28RTibPost	29RPeroneusLong	30RSol	31RExtDigLong	32RFlexDigLong
57.88	0.01236	-0.15564	-0.16739	0.016479	0.027466	-0.27405	0.10208	-0.002289	-0.48111	-0.032501	-0.3244	-0.002289	0.035095	0.048218	-0.088196	-0.028229	0.015411	-0.11658	0.16357	-0.00824	0.03418	0.096283	0.1088	-0.041962	0.027161	0.006256	0.34882	-0.004425	0.056458	0.016632	0.002136	-0.032349
57.881	0.004883	-0.10544	-0.23651	-0.007172	0.042267	-0.19821	0.081329	0.004425	-0.41748	-0.035858	-0.25482	-0.00061	-0.033417	0.036926	0.22812	-0.017853	-0.005798	-0.031433	-0.47531	-0.02655	0.022278	0.071716	0.14297	-0.094147	-0.003052	0.007477	0.056	-0.005951	-0.12421	-0.00351	0.000458	-0.011444
57.882	-0.000153	-0.084839	-0.16357	-0.010681	0.006256	-0.074921	0.094604	0.007477	-0.29282	-0.038757	-0.056	0.010529	-0.00885	-0.018921	-0.12695	-0.008545	-0.032654	-0.002899	-0.74753	-0.081024	0.023193	0.067444	0.10407	-0.15121	-0.004883	0.000916	0.22293	0.002289	-0.20309	-0.003204	-0.002136	-0.007477
57.883	-0.00885	-0.051117	0.093384	-0.006104	-0.008698	0.047455	0.06485	0.010223	-0.22842	-0.064697	0.093994	0.009613	0.020905	-0.048065	-0.32394	-0.031891	-0.045166	0.029755	-0.48737	-0.11368	0.015869	0.060425	0.10666	-0.15488	-0.026703	-0.001221	0.45044	-0.002747	-0.09201	0.014191	0.001373	-0.00885
57.884	-0.007324	-0.062561	0.08255	0.022278	0.031586	0.16556	-0.000916	0.0177	-0.065613	-0.042114	0.1622	0.006104	-0.014954	-0.018311	-0.54092	-0.007324	-0.048981	0.046692	1.545	-0.1619	0.010376	0.062866	0.28671	-0.22064	-0.033417	-0.001678	0.20279	-0.007477	-0.085144	0.068054	-0.003052	0.019836
57.885	0.010376	-0.053711	0.21057	0.019073	0.000763	0.23514	0.055542	0.010071	0.076294	-0.036926	0.15549	0.004578	0.027466	-0.055847	-0.64087	0.018005	-0.045624	0.013275	2.9414	-0.17593	0.022736	0.063934	0.47287	-0.18417	-0.025177	-0.002747	0.006104	-0.003815	-0.032349	0.17899	-0.006561	0.017548
57.886	0.020142	-0.035248	0.2565	0.018921	0.010071	0.2092	0.14404	0.007782	0.1561	-0.018616	-0.14893	0.011749	0.036163	-0.15198	-0.5751	0.007172	-0.029907	-0.048218	2.0877	-0.21668	0.018158	0.067596	0.41794	-0.17792	-0.005646	-0.000153	-0.33264	-0.005188	0.14771	0.22919	0	0.029297
57.887	0.012817	-0.027771	0.091248	0.005646	-0.012665	0.20203	0.11581	0.00946	0.1326	0.007782	-0.19684	0.00885	0.026703	-0.14206	-0.25207	0.011597	-0.020447	-0.11627	0.64179	-0.12619	0.010681	0.068665	0.2771	-0.17654	-0.013123	-0.002594	-0.37994	-0.00824	0.093994	0.16113	0.012054	0.039368
57.888	0.015869	-0.022278	0.034027	0.001526	-0.059814	0.15121	0.046844	-0.010986	-0.1149	0.066681	-0.16617	0.002594	-0.076141	-0.000916	-0.045013	0.036469	-0.02121	-0.10254	0.35126	-0.074158	0.013275	0.058746	0.1001	-0.20493	-0.013123	-0.014801	-0.019684	-0.008392	-0.010223	0.067596	-0.001678	0.044403
57.889	0.023193	-0.028076	0.11292	-0.002136	-0.075989	0.11459	0.029755	-0.002899	-0.16556	0.1207	-0.10132	0.00885	-0.11597	-0.020905	-0.32562	-0.045013	-0.00885	-0.090942	0.69412	-0.012665	0.024109	0.069122	-0.12894	-0.14404	-0.024414	-0.013733	0.18539	-0.009918	-0.019379	0.038147	0.000305	0.054321
57.89	0.013123	-0.007629	0.047607	-0.001831	0.009766	0.025482	-0.012817	0.005493	-0.12329	0.09491	-0.088806	-0.001373	-0.10605	-0.043488	-0.37231	-0.11688	-0.003967	-0.055237	0.75607	0.020752	0.011444	0.063629	-0.14969	-0.12833	-0.019836	-0.005798	-0.005951	-0.00946	0.032196	0.001526	-0.001831	0.069275
57.891	0.016785	-0.005951	0.036163	-0.001221	0.055695	-0.44037	-0.10056	0.006409	-0.088348	0.008087	-0.082703	0.004272	-0.010223	-0.066071	-0.15945	-0.02594	-0.000153	-0.034027	0.50156	0.000763	0.014343	0.068359	-0.11032	-0.063019	-0.009155	-0.009613	0.14099	-0.009766	0.17487	-0.000763	0.001831	0.059662
57.892	0.019836	-0.024567	0.07782	-0.016785	-0.013123	-0.48172	-0.01709	0.007172	-0.068665	-0.038452	-0.055695	0.008392	0.021515	-0.039215	0.067902	0.041809	0.003967	0.010376	0.54672	-0.075989	0.019531	0.072479	-0.22644	-0.02594	0.009308	-0.012207	-0.17868	-0.008392	0.18555	0.017853	0.002899	0.067749
57.893	0.034027	0.003204	0.040741	-0.001373	0.036011	-0.32562	0.005188	-0.003967	-0.10681	-0.053558	0.029144	0.005493	-0.033875	-0.071259	0.23483	0.029907	0.011292	-0.007019	0.66956	-0.001221	0.011749	0.082245	-0.28351	-0.050507	0.005341	-0.002747	-0.42755	-0.007019	0.052338	0.043488	0.000916	0.032806
57.894	0.034027	0.000458	0.10544	-0.009155	0.084381	-0.1561	0.065002	-0.008392	-0.10742	-0.07309	0.070648	0.013275	-0.056152	-0.1889	0.29205	0.081635	0.007935	0.004425	0.53253	0.13153	0.019836	0.071869	-0.32822	-0.024567	-0.019836	-0.001373	-0.31281	-0.003662	-0.079498	0.046082	0.006256	-0.083771
57.895	0.032959	-0.010681	0.074768	0.008087	0.09491	0.027771	0.089111	0.003052	-0.081482	0.031128	0.055084	0.01236	-0.036163	-0.25589	0.30502	0.069885	0.006714	-0.033112	0.51758	0.1712	0.011292	0.079346	-0.30579	-0.090179	-0.00473	0.002289	-0.34561	-0.00351	-0.1619	0.070648	0.002594	-0.1268
57.896	0.037994	0.010223	0.061493	0.018158	0.078125	0.083466	0.047455	0.005493	0.022125	0.066376	-0.022888	0.005646	-0.017853	-0.30045	0.25574	0.033112	0.007019	-0.005341	0.39887	0.13626	0.011292	0.07309	-0.16037	-0.067444	-0.013733	0.004272	-0.19363	-0.000153	-0.13657	0.093384	0.001984	-0.14465
57.897	0.027618	0.011597	0.10574	0.015564	0.046844	0.064087	0.039063	0.008392	0.10239	0.27771	-0.035095	0.014954	0.031891	-0.19333	0.21668	-0.054016	0.000916	-0.009308	0.31189	0.020447	0.021515	0.072632	-0.014038	-0.061798	0.003967	0.000458	-0.002441	-0.00412	-0.082245	0.10193	-0.001526	-0.13153
57.898	0.032806	0.011749	0.10025	0.016632	0.027771	0.015259	0.027466	0.00412	0.14603	0.36224	-0.02533	0.013733	0.049286	-0.11581	0.19577	-0.029755	0.004272	0.004883	0.30838	-0.037384	0.005798	0.097351	-0.075989	-0.08255	-0.018768	0.00946	0.10635	-0.006409	-0.046844	0.084381	0.000916	-0.13336
57.899	0.021057	-0.011292	-0.023804	0.026703	0.028687	0.024261	0.056152	0.001526	0.088959	0.19653	-0.023193	-0.001068	0.058594	-0.099182	0.1886	0.01709	-0.004578	0.008087	0.31723	0.022888	0.005646	0.081177	-0.16174	-0.0737	-0.014496	0.00885	0.15106	-0.002899	-0.018158	0.0354	-0.002136	-0.1004
57.9	0.014801	0.022888	0.036316	0.017395	0.002899	0.041809	0.03891	-0.007172	0.031891	-0.19699	-0.002136	0.012665	0.03418	-0.087128	0.19898	0.1471	-0.009613	-0.03067	0.38925	0.042114	0.004425	0.071106	-0.078583	-0.065765	-0.009308	0.011597	0.18143	-0.006409	-0.071716	-0.020294	0.006866	-0.051575
57.901	0.006104	0.045776	0.079498	0.006256	-0.02182	-0.009918	0.048981	0.002441	0.067444	-0.16174	0.048828	0.015106	0.001526	-0.082855	0.23987	-0.4509	0.004272	-0.019226	0.61096	-0.04364	-0.001373	0.071411	0.023651	-0.050507	-0.003357	0.018158	-0.059204	-0.005341	-0.10849	-0.089111	0.001068	-0.02594
57.902	0.010071	0.10513	0.13901	-0.00473	-0.029907	0.00885	0.044556	0.00473	0.079498	-0.16205	0.035706	0.019073	-0.038605	-0.065918	0.22751	0.18997	0.001221	-0.034943	0.31891	-0.052338	0.004578	0.071259	-0.00473	-0.066833	-0.010681	0.015717	-0.11169	-0.007172	-0.16464	-0.07843	0.002441	0.002136
57.903	0.012817	0.078583	0.042267	0.017548	0.001984	0.059967	0.00946	0.010681	0.054626	-0.1294	0.026398	0.015106	-0.082397	0.003204	0.11704	0.12863	0.013733	-0.010681	0.096283	-0.059509	-0.003815	0.059204	0.030518	-0.060425	0.007172	0.011597	-0.059662	-0.003357	-0.16144	-0.041809	-0.005035	0.007782
57.904	0.007629	0.1152	0.026703	0.018616	-0.002747	0.10468	-0.005341	0.001526	-0.014038	-0.005951	0.063019	0.016327	-0.10696	-0.035248	-0.18509	0.055237	0.010223	-0.039673	0.00473	0.050354	-0.009155	0.05661	0.03418	-0.048676	0.007935	0.021057	0.010223	-0.003052	-0.19836	-0.048828	-0.007782	-0.009613
57.905	0.005341	0.066986	0.000763	0.012817	0.000153	0.19058	0.011139	0.006714	-0.022888	-0.10956	0.1387	0.009766	-0.097504	-0.044556	-0.14328	0.011902	0.001221	-0.02182	0.02594	0.12283	-0.002289	0.054169	0.025177	-0.10361	-0.005493	0.021973	0.020599	-0.005341	0.064697	-0.024109	0.00473	-0.049438
57.906	-0.000458	0.064087	-0.048523	0.016174	-0.015717	0.15595	0.042267	0.017395	-0.006104	-0.13123	0.12024	0.010529	-0.068054	-0.036774	-0.15793	-0.000458	0.004425	-0.024719	0.046539	0.1889	-0.000305	0.060883	0.009308	-0.10391	0.001373	0.019989	0.053406	-0.002289	0.062256	-0.011597	0.002136	-0.073242
57.907	0.001678	0.029297	-0.10727	0.016785	-0.024414	0.085602	0.065002	0.013428	-0.006104	-0.090179	0.0737	0.01358	-0.1059	-0.088654	-0.075073	0.000305	0.024719	0.011902	0.044098	0.17014	0.003204	0.058594	0.012665	-0.08606	0.009308	0.024109	0.10574	-0.003204	-0.044403	-0.060577	0.000916	-0.07309
57.908	-0.002136	0.002289	-0.029755	-0.00412	-0.041046	0.072021	0.055847	0.020142	-0.014191	-0.066376	0.049744	0.009155	-0.11307	-0.020599	-0.024872	-0.014191	0.04837	-0.018616	0.071259	0.087433	-0.007782	0.059662	0.028992	-0.098267	0.018921	0.022736	0.10407	-0.003662	-0.10483	-0.08606	-0.001984	-0.06897
57.909	0.002594	-0.030212	0.008087	0.01297	-0.052795	0.064087	0.065765	0.011749	-0.009613	-0.050354	0.067444	0.005798	-0.057068	0.057373	0.092926	-0.016785	0.04303	-0.010681	0.069122	0.059052	-0.008392	0.045166	0.051575	-0.11093	0.026703	0.017853	0.092621	-0.001221	-0.045166	-0.06134	-0.001373	-0.059814
